<svg version="1.2" xmlns="http://www.w3.org/2000/svg" viewBox="0 0 400 200" preserveAspectRatio="xMidYMid meet">
	<style>
		.s0 { fill: none; stroke: #ceaa58; stroke-miterlimit: 10; stroke-width: 8 } 
		.s1 { fill: #ceaa58 } 
	</style>
	<g id="COMPLETO">
		<path id="Path1" class="s0" d="M132 108L82 108V32C82 20 92 10 104 10C116 10 126 20 126 32V108"/>
		<path id="Path2" class="s0" d="M64 108V32C64 20 74 10 86 10C98 10 108 20 108 32V108"/>
		<path id="LEGAL-CONSULTING" class="s1" aria-label="LEGAL CONSULTING" d="M205 137V50H220V120H280V137H205ZM250 137V50H320V67H250V90H320V107H250V120H325V137H250ZM350 115V75H320V58H350V123Q340 130 325 134Q310 138 290 138Q255 138 235 118Q215 98 215 61Q215 24 235 4Q255 -16 290 -16Q305 -16 318 -12Q331 -8 340 -1V20Q329 10 316 5Q303 0 290 0Q270 0 255 15Q240 30 240 61Q240 92 255 107Q270 122 290 122Q300 122 308 120Q316 118 320 115ZM380 80L355 5L330 80ZM300 135L355 5H375L430 135H410L395 95H340L325 135H300ZM390 135V5H410V120H480V135H390Z"/>
	</g>
</svg>